# Blender v2.80 (sub 46) OBJ File: 'BounceBattle_WorldObjects.blend'
# www.blender.org
mtllib Barn.mtl
o Barn_Cube
v -1.400000 0.000000 2.000000
v -1.400000 1.000000 2.000000
v -1.400000 0.000000 -2.000000
v -1.400000 1.000000 -2.000000
v 1.400000 0.000000 2.000000
v 1.400000 1.000000 2.000000
v 1.400000 0.000000 -2.000000
v 1.400000 1.000000 -2.000000
v -1.174190 1.701272 2.000000
v -1.174190 1.701272 -2.000000
v 1.174190 1.701272 -2.000000
v 1.174190 1.701272 2.000000
v -0.654583 2.204204 2.000000
v -0.654583 2.204204 -2.000000
v 0.654583 2.204204 -2.000000
v 0.654583 2.204204 2.000000
v -1.521014 1.076617 2.000000
v -1.521014 1.076617 -2.000000
v 1.521014 1.076617 -2.000000
v 1.521014 1.076617 2.000000
v -1.318293 1.736163 2.000000
v -1.318293 1.736163 -2.000000
v 1.318293 1.736163 -2.000000
v 1.318293 1.736163 2.000000
v -0.730305 2.316681 2.000000
v -0.730305 2.316681 -2.000000
v 0.730305 2.316681 -2.000000
v 0.730305 2.316681 2.000000
v -1.490854 0.793396 2.000000
v -1.490854 0.793396 -2.000000
v 1.490854 0.793396 -2.000000
v 1.490854 0.793396 2.000000
v -1.619722 0.870013 2.000000
v -1.619722 0.870013 -2.000000
v 1.619722 0.870013 -2.000000
v 1.619722 0.870013 2.000000
v 0.730305 2.316681 2.125096
v 0.654583 2.204204 2.125096
v 1.174190 1.701272 2.125096
v 1.318293 1.736163 2.125096
v 1.400000 1.000000 -2.125096
v 1.174190 1.701272 -2.125096
v 1.400000 1.000000 2.125096
v -1.400000 1.000000 2.125096
v -1.174190 1.701272 2.125096
v -1.174190 1.701272 -2.125096
v -1.400000 1.000000 -2.125096
v -1.521014 1.076617 2.125096
v -0.654583 2.204204 -2.125096
v 0.654583 2.204204 -2.125096
v -1.318293 1.736163 2.125096
v -0.654583 2.204204 2.125096
v 1.521014 1.076617 -2.125096
v 1.318293 1.736163 -2.125096
v 1.521014 1.076617 2.125096
v -1.318293 1.736163 -2.125096
v -1.521014 1.076617 -2.125096
v -0.730305 2.316681 -2.125096
v 0.730305 2.316681 -2.125096
v -0.730305 2.316681 2.125096
v -1.619722 0.870013 2.125096
v -1.490854 0.793396 2.125096
v 1.490854 0.793396 -2.125096
v 1.619722 0.870013 -2.125096
v 1.619722 0.870013 2.125096
v 1.490854 0.793396 2.125096
v -1.619722 0.870013 -2.125096
v -1.490854 0.793396 -2.125096
v 0.000000 0.000000 -2.000000
v 0.000000 1.000000 -2.000000
v 0.000000 0.000000 2.000000
v 0.000000 1.000000 2.000000
v 0.000000 1.701272 -2.000000
v 0.000000 1.701272 2.000000
v 0.000000 2.204204 -2.000000
v 0.000000 2.204204 2.000000
v 0.000000 2.316681 -2.000000
v 0.000000 2.316681 2.000000
v 0.000000 2.204204 -2.125096
v 0.000000 2.204204 2.125096
v 0.000000 2.316681 -2.125096
v 0.000000 2.316681 2.125096
v -0.564657 0.000000 -2.000000
v -0.564657 1.000000 2.000000
v -0.473582 1.701272 2.000000
v -0.264011 2.204204 2.000000
v -0.294551 2.316681 2.000000
v -0.264011 2.204204 2.125096
v -0.294551 2.316681 2.125096
v -0.564657 1.000000 -2.000000
v -0.564657 0.000000 2.000000
v -0.473582 1.701272 -2.000000
v -0.264011 2.204204 -2.000000
v -0.294551 2.316681 -2.000000
v -0.264011 2.204204 -2.125096
v -0.294551 2.316681 -2.125096
v 0.549372 1.000000 -2.000000
v 0.549372 0.000000 2.000000
v 0.460762 1.701272 -2.000000
v 0.256864 2.204204 -2.000000
v 0.286578 2.316681 -2.000000
v 0.256864 2.204204 -2.125096
v 0.286578 2.316681 -2.125096
v 0.549372 0.000000 -2.000000
v 0.549372 1.000000 2.000000
v 0.460762 1.701272 2.000000
v 0.256864 2.204204 2.000000
v 0.286578 2.316681 2.000000
v 0.256864 2.204204 2.125096
v 0.286578 2.316681 2.125096
vt 0.908881 0.970567
vt 0.807400 0.970567
vt 0.807400 0.500000
vt 0.908881 0.500000
vt 0.223797 0.570636
vt 0.122265 0.570636
vt 0.122265 0.470567
vt 0.223797 0.470567
vt 0.583603 0.970567
vt 0.482121 0.970567
vt 0.482121 0.500000
vt 0.583603 0.500000
vt 0.583603 0.731126
vt 0.685135 0.731126
vt 0.685135 0.829397
vt 0.583603 0.829397
vt 0.086366 0.470567
vt 0.000000 0.470567
vt 0.000000 0.000000
vt 0.086366 0.000000
vt 0.236881 0.485284
vt 0.223797 0.485284
vt 0.223797 0.470567
vt 0.236881 0.470567
vt 0.979324 0.985283
vt 0.979324 0.514717
vt 1.000000 0.514717
vt 1.000000 0.985283
vt 0.908881 0.985283
vt 0.979324 1.000000
vt 0.908881 1.000000
vt 0.685135 0.600069
vt 0.685135 0.500000
vt 0.756336 0.526565
vt 0.756336 0.610494
vt 0.122265 0.701693
vt 0.122265 0.799964
vt 0.051064 0.773399
vt 0.051064 0.690978
vt 0.223797 0.955850
vt 0.236881 0.955850
vt 0.236881 0.970567
vt 0.223797 0.970567
vt 0.494740 0.014717
vt 0.433946 0.014717
vt 0.433946 0.000000
vt 0.494740 0.000000
vt 0.807400 0.587692
vt 0.807400 0.634480
vt 0.000000 0.712272
vt 0.000000 0.666324
vt 0.412664 0.014717
vt 0.412664 0.485283
vt 0.345083 0.485283
vt 0.345083 0.014717
vt 0.284289 0.485283
vt 0.284289 0.014717
vt 0.562320 0.014717
vt 0.562320 0.485283
vt 0.494740 0.485283
vt 0.627846 0.485283
vt 0.583603 0.485283
vt 0.583603 0.014717
vt 0.627846 0.014717
vt 0.433946 0.485283
vt 0.908881 0.514717
vt 0.908881 0.500000
vt 0.979324 0.500000
vt 0.494740 0.500000
vt 0.433946 0.500000
vt 0.284289 0.000000
vt 0.345083 0.000000
vt 0.249965 0.485284
vt 0.236881 0.485284
vt 0.236881 0.470567
vt 0.249965 0.470567
vt 0.249965 0.531694
vt 0.249965 0.470567
vt 0.262667 0.470567
vt 0.262667 0.531694
vt 0.433946 0.485283
vt 0.433946 0.500000
vt 0.412664 0.500000
vt 0.345083 0.500000
vt 0.284289 0.500000
vt 0.236881 0.955850
vt 0.249965 0.955850
vt 0.583603 0.014717
vt 0.583603 0.485283
vt 0.275368 0.470567
vt 0.275368 0.531694
vt 0.262667 0.531694
vt 0.262667 0.470567
vt 0.957006 0.485283
vt 0.957006 0.014717
vt 0.977682 0.014717
vt 0.977682 0.485283
vt 0.957006 0.000000
vt 0.977682 0.000000
vt 0.583603 0.000000
vt 0.627846 0.000000
vt 0.433946 0.014717
vt 0.341768 0.828681
vt 0.412969 0.855245
vt 0.405190 0.869482
vt 0.338225 0.845633
vt 0.857807 0.369482
vt 0.865586 0.355245
vt 0.886563 0.365934
vt 0.878784 0.381094
vt 0.743321 0.267553
vt 0.794385 0.328681
vt 0.790842 0.345633
vt 0.731901 0.276461
vt 0.865586 0.025848
vt 0.794385 0.052413
vt 0.790842 0.035461
vt 0.857807 0.011612
vt 0.743321 0.113541
vt 0.731901 0.104633
vt 0.412969 0.525848
vt 0.341768 0.552413
vt 0.338225 0.535461
vt 0.405190 0.511612
vt 0.743321 0.220765
vt 0.731901 0.224260
vt 0.290704 0.767553
vt 0.279284 0.776461
vt 0.290704 0.613541
vt 0.279284 0.604633
vt 0.290704 0.721606
vt 0.279284 0.725198
vt 0.433946 0.865933
vt 0.426167 0.881094
vt 0.426167 0.500000
vt 0.433946 0.515160
vt 0.878784 0.000000
vt 0.886563 0.015160
vt 0.886563 0.014717
vt 0.886563 0.000000
vt 0.249965 0.970567
vt 0.236881 0.970567
vt 0.886563 0.485283
vt 0.957006 0.500000
vt 0.886563 0.500000
vt 0.412663 0.000000
vt 1.000000 1.000000
vt 0.562320 0.500000
vt 0.433946 0.000000
vt 0.249965 0.577642
vt 0.262667 0.577642
vt 0.562320 0.000000
vt 1.000000 0.500000
vt 0.583603 0.000000
vt 0.275368 0.638919
vt 0.275368 0.685707
vt 0.262667 0.685707
vt 0.262667 0.638919
vt 0.686849 0.485283
vt 0.731901 0.485283
vt 0.731901 0.500000
vt 0.686849 0.500000
vt 0.583603 0.500000
vt 0.249965 0.746834
vt 0.249965 0.685707
vt 0.262667 0.685707
vt 0.262667 0.746834
vt 0.977682 0.500000
vt 0.275368 0.746834
vt 0.262667 0.746834
vt 0.657752 0.485283
vt 0.657752 0.500000
vt 0.627846 0.500000
vt 0.275368 0.577642
vt 0.275368 0.608701
vt 0.262667 0.608701
vt 0.262667 0.577642
vt 0.249965 0.638919
vt 0.249965 0.608701
vt 0.262667 0.608701
vt 0.262667 0.638919
vt 0.290704 0.660329
vt 0.290704 0.690547
vt 0.279284 0.690547
vt 0.279284 0.656833
vt 0.743321 0.159488
vt 0.743321 0.190547
vt 0.731901 0.190547
vt 0.731901 0.155895
vt 0.686849 0.014717
vt 0.657752 0.014717
vt 0.657752 0.000000
vt 0.686849 0.000000
vt 0.051064 0.581061
vt 0.051064 0.635265
vt 0.000000 0.635265
vt 0.000000 0.605048
vt 0.756336 0.720411
vt 0.756336 0.664698
vt 0.807400 0.664698
vt 0.807400 0.695757
vt 0.122265 0.635265
vt 0.685135 0.664698
vt 0.199475 0.470567
vt 0.142145 0.470567
vt 0.142145 0.000000
vt 0.199475 0.000000
vt 0.583603 0.600069
vt 0.583603 0.664698
vt 0.223797 0.701693
vt 0.223797 0.635265
vt 0.223797 0.799964
vt 0.284289 0.470567
vt 0.284289 0.000000
vt 0.756336 0.802832
vt 0.807400 0.741705
vt 0.583603 0.500000
vt 0.051064 0.497132
vt 0.000000 0.558259
vt 0.731901 0.014717
vt 0.731901 0.000000
vn -1.0000 0.0000 0.0000
vn 0.0000 0.0000 -1.0000
vn 1.0000 0.0000 0.0000
vn 0.0000 0.0000 1.0000
vn 0.0000 -1.0000 0.0000
vn 0.5110 -0.8596 0.0000
vn -0.9154 -0.4025 0.0000
vn -0.9519 -0.3065 0.0000
vn -0.7026 0.7116 0.0000
vn 0.9559 0.2938 0.0000
vn 0.7026 0.7116 0.0000
vn -0.9559 0.2938 0.0000
vn 0.0000 1.0000 0.0000
vn -0.5110 -0.8596 0.0000
vn 0.6955 -0.7185 0.0000
vn 0.9023 0.4311 0.0000
vn -0.9023 0.4311 0.0000
vn 0.9154 -0.4025 0.0000
vn 0.9519 -0.3065 0.0000
vn -0.6955 -0.7185 0.0000
usemtl Barn
s off
f 1/1/1 2/2/1 4/3/1 3/4/1
f 104/5/2 97/6/2 8/7/2 7/8/2
f 7/9/3 8/10/3 6/11/3 5/12/3
f 91/13/4 84/14/4 2/15/4 1/16/4
f 104/17/5 7/18/5 5/19/5 98/20/5
f 32/21/6 36/22/6 65/23/6 66/24/6
f 6/25/7 8/26/7 31/27/7 32/28/7
f 12/29/8 6/25/8 43/30/8 39/31/8
f 105/32/4 6/33/4 12/34/4 106/35/4
f 90/36/2 4/37/2 10/38/2 92/39/2
f 35/40/6 31/41/6 63/42/6 64/43/6
f 22/44/9 26/45/9 58/46/9 56/47/9
f 106/35/4 12/34/4 16/48/4 107/49/4
f 92/39/2 10/38/2 14/50/2 93/51/2
f 20/52/10 19/53/10 23/54/10 24/55/10
f 24/55/11 23/54/11 27/56/11 28/57/11
f 18/58/12 17/59/12 21/60/12 22/44/12
f 94/61/13 26/62/13 25/63/13 87/64/13
f 22/44/9 21/60/9 25/65/9 26/45/9
f 8/26/8 11/66/8 42/67/8 41/68/8
f 25/65/9 21/60/9 51/69/9 60/70/9
f 24/55/11 28/57/11 37/71/11 40/72/11
f 33/73/14 29/74/14 62/75/14 61/76/14
f 14/77/15 10/78/15 46/79/15 49/80/15
f 19/53/16 35/81/16 64/82/16 53/83/16
f 27/56/11 23/54/11 54/84/11 59/85/11
f 30/86/14 29/74/14 33/73/14 34/87/14
f 32/21/6 31/41/6 35/40/6 36/22/6
f 17/59/17 18/58/17 34/88/17 33/89/17
f 9/90/15 13/91/15 52/92/15 45/93/15
f 4/94/18 2/95/18 29/96/18 30/97/18
f 29/96/18 2/95/18 44/98/18 62/99/18
f 87/64/13 25/63/13 60/100/13 89/101/13
f 19/53/16 20/52/16 36/102/16 35/81/16
f 46/103/2 47/104/2 57/105/2 56/106/2
f 55/107/4 43/108/4 66/109/4 65/110/4
f 38/111/4 39/112/4 40/113/4 37/114/4
f 44/115/4 45/116/4 51/117/4 48/118/4
f 45/116/4 52/119/4 60/120/4 51/117/4
f 41/121/2 42/122/2 54/123/2 53/124/2
f 109/125/4 38/111/4 37/114/4 110/126/4
f 49/127/2 46/103/2 56/106/2 58/128/2
f 39/112/4 43/108/4 55/107/4 40/113/4
f 42/122/2 50/129/2 59/130/2 54/123/2
f 95/131/2 49/127/2 58/128/2 96/132/2
f 57/105/2 47/104/2 68/133/2 67/134/2
f 41/121/2 53/124/2 64/135/2 63/136/2
f 44/115/4 48/118/4 61/137/4 62/138/4
f 2/95/19 9/139/19 45/140/19 44/98/19
f 23/54/10 19/53/10 53/83/10 54/84/10
f 30/86/14 34/87/14 67/141/14 68/142/14
f 10/143/19 4/94/19 47/144/19 46/145/19
f 20/52/10 24/55/10 40/72/10 55/146/10
f 6/25/7 32/28/7 66/147/7 43/30/7
f 21/60/12 17/59/12 48/148/12 51/69/12
f 36/102/16 20/52/16 55/146/16 65/149/16
f 93/150/5 14/77/5 49/80/5 95/151/5
f 18/58/12 22/44/12 56/47/12 57/152/12
f 31/27/7 8/26/7 41/68/7 63/153/7
f 34/88/17 18/58/17 57/152/17 67/154/17
f 107/155/5 16/156/5 38/157/5 109/158/5
f 101/159/13 27/160/13 59/161/13 103/162/13
f 17/59/17 33/89/17 61/163/17 48/148/17
f 11/164/20 15/165/20 50/166/20 42/167/20
f 4/94/18 30/97/18 68/168/18 47/144/18
f 16/156/20 12/169/20 39/170/20 38/157/20
f 94/61/13 77/171/13 81/172/13 96/173/13
f 86/174/5 76/175/5 80/176/5 88/177/5
f 100/178/5 75/179/5 79/180/5 102/181/5
f 102/182/2 79/183/2 81/184/2 103/185/2
f 88/186/4 80/187/4 82/188/4 89/189/4
f 108/190/13 78/191/13 82/192/13 110/193/13
f 101/159/13 77/171/13 78/191/13 108/190/13
f 99/194/2 73/195/2 75/196/2 100/197/2
f 85/198/4 74/199/4 76/200/4 86/201/4
f 97/6/2 70/202/2 73/195/2 99/194/2
f 84/14/4 72/203/4 74/199/4 85/198/4
f 83/204/5 69/205/5 71/206/5 91/207/5
f 98/208/4 105/32/4 72/203/4 71/209/4
f 83/210/2 90/36/2 70/202/2 69/211/2
f 3/212/2 4/37/2 90/36/2 83/210/2
f 3/213/5 83/204/5 91/207/5 1/214/5
f 2/15/4 84/14/4 85/198/4 9/215/4
f 9/215/4 85/198/4 86/201/4 13/216/4
f 52/119/4 88/186/4 89/189/4 60/120/4
f 13/91/5 86/174/5 88/177/5 52/92/5
f 26/62/13 94/61/13 96/173/13 58/217/13
f 75/179/5 93/150/5 95/151/5 79/180/5
f 79/183/2 95/131/2 96/132/2 81/184/2
f 78/191/13 87/64/13 89/101/13 82/192/13
f 77/171/13 94/61/13 87/64/13 78/191/13
f 73/195/2 92/39/2 93/51/2 75/196/2
f 70/202/2 90/36/2 92/39/2 73/195/2
f 71/209/4 72/203/4 84/14/4 91/13/4
f 5/12/4 6/33/4 105/32/4 98/208/4
f 8/7/2 97/6/2 99/194/2 11/218/2
f 11/218/2 99/194/2 100/197/2 15/219/2
f 27/160/13 101/159/13 108/190/13 28/220/13
f 28/220/13 108/190/13 110/193/13 37/221/13
f 50/129/2 102/182/2 103/185/2 59/130/2
f 15/165/5 100/178/5 102/181/5 50/166/5
f 77/171/13 101/159/13 103/162/13 81/172/13
f 76/175/5 107/155/5 109/158/5 80/176/5
f 80/187/4 109/125/4 110/126/4 82/188/4
f 74/199/4 106/35/4 107/49/4 76/200/4
f 72/203/4 105/32/4 106/35/4 74/199/4
f 69/205/5 104/17/5 98/20/5 71/206/5
f 69/211/2 70/202/2 97/6/2 104/5/2
